<?xml version="1.0" encoding="UTF-8" standalone="no"?>
<svg width="291px" height="420px" viewBox="0 0 291 420" version="1.1" xmlns="http://www.w3.org/2000/svg" xmlns:xlink="http://www.w3.org/1999/xlink" xmlns:sketch="http://www.bohemiancoding.com/sketch/ns">
    <!-- Generator: Sketch 3.4.2 (15857) - http://www.bohemiancoding.com/sketch -->
    <title>Shape</title>
    <desc>Created with Sketch.</desc>
    <defs></defs>
    <g id="Page-1" stroke="none" stroke-width="1" fill="none" fill-rule="evenodd" sketch:type="MSPage">
        <g id="signup3" sketch:type="MSArtboardGroup" transform="translate(-821.000000, -233.000000)" stroke="#607D8B" stroke-width="7">
            <path d="M1108,500.642822 C1108,473.867933 1093.69112,450.497062 1072.35711,437.541471 L1072.35711,265.054283 C1072.35711,249.581473 1059.77102,237 1044.31207,237 L913.749266,237 L825,328.779165 L825,518.217163 C825,533.689973 837.59071,546.262208 853.049664,546.262208 L976.17628,546.262208 C981.312329,552.783882 987.538403,558.414137 994.558901,562.90818 L994.558901,644.500028 C994.558901,650.021743 997.47539,651.102676 1001.07128,646.916432 L1033.46724,609.201903 L1065.86321,646.916432 C1069.45989,651.103603 1072.37559,650.028209 1072.37559,644.503859 L1072.37559,563.739555 C1093.70497,550.788582 1108,527.417711 1108,500.642822 L1108,500.642822 Z M907.634042,271.257263 L907.634042,314.659649 C907.634042,319.41696 903.754292,323.292091 898.996981,323.292091 L857.308151,323.292091 L907.634042,271.257263 L907.634042,271.257263 Z M960.329351,500.642822 C960.329351,509.889558 962.10757,518.692894 965.202131,526.849605 L853.054283,526.849605 C848.296971,526.849605 844.417222,522.979093 844.417222,518.217163 L844.417222,342.704694 L898.996981,342.704694 C914.460553,342.704694 927.046644,330.123221 927.046644,314.659649 L927.046644,256.412603 L1044.31207,256.412603 C1049.06938,256.412603 1052.94451,260.287733 1052.94451,265.054283 L1052.94451,429.315479 C1046.94014,427.735866 1040.67249,426.812116 1034.16468,426.812116 C993.385739,426.812116 960.329351,459.868504 960.329351,500.642822 L960.329351,500.642822 Z" id="Shape" sketch:type="MSShapeGroup"></path>
        </g>
    </g>
</svg>