<?xml version="1.0" encoding="UTF-8" standalone="no"?>
<svg width="391px" height="388px" viewBox="0 0 391 388" version="1.1" xmlns="http://www.w3.org/2000/svg" xmlns:xlink="http://www.w3.org/1999/xlink" xmlns:sketch="http://www.bohemiancoding.com/sketch/ns">
    <!-- Generator: Sketch 3.4.2 (15857) - http://www.bohemiancoding.com/sketch -->
    <title>Group</title>
    <desc>Created with Sketch.</desc>
    <defs></defs>
    <g id="Page-1" stroke="none" stroke-width="1" fill="none" fill-rule="evenodd" sketch:type="MSPage">
        <g id="signup_school" sketch:type="MSArtboardGroup" transform="translate(-751.000000, -233.000000)" stroke="#607D8B">
            <g id="Group" sketch:type="MSLayerGroup" transform="translate(755.000000, 233.000000)">
                <path d="M274.769196,185.018208 L274.769196,112.947887 L283.7284,112.947887 C287.080428,112.947887 287.318774,111.820877 284.284522,110.441442 L191.5,68.2596293 L98.7233371,110.441442 C95.6787053,111.825714 95.9321072,112.947887 99.2799257,112.947887 L108.23913,112.947887 L108.23913,185.018208 L0,185.018208 L0,323.126641 L108.23913,323.126641 L124.083674,323.126641 L258.916326,323.126641 L274.769196,323.126641 L383,323.126641 L383,185.018208 L274.769196,185.018208 L274.769196,185.018208 Z M0,352.576385 L383,352.576385 L383,350.155001 L0,350.155001 L0,352.576385 L0,352.576385 Z M0,383.943865 L383,383.943865 L383,381.522481 L0,381.522481 L0,383.943865 L0,383.943865 Z M160.352109,240.264909 L222.639565,240.264909 L222.639565,323.126641 L160.352109,323.126641 L160.352109,240.264909 L160.352109,240.264909 Z M195.136076,3.76501974 L144.231013,3.76501974 L144.231013,35.3405065 L195.136076,35.3405065 M191.5,0 L191.5,68.2596293" id="Shape" stroke-width="7" sketch:type="MSShapeGroup"></path>
                <path d="M34.5427215,221.510984 L34.5427215,244.890989 C34.5427215,246.562605 35.8993271,247.917718 37.5727848,247.917718 C39.2462426,247.917718 40.6028481,246.562605 40.6028481,244.890989 L40.6028481,221.510984 C40.6028481,219.839367 39.2462426,218.484254 37.5727848,218.484254 C35.8993271,218.484254 34.5427215,219.839367 34.5427215,221.510984 Z M69.6914557,221.510984 L69.6914557,244.890989 C69.6914557,246.562605 71.0480612,247.917718 72.721519,247.917718 C74.3949767,247.917718 75.7515823,246.562605 75.7515823,244.890989 L75.7515823,221.510984 C75.7515823,219.839367 74.3949767,218.484254 72.721519,218.484254 C71.0480612,218.484254 69.6914557,219.839367 69.6914557,221.510984 Z M106.052215,221.510984 L106.052215,244.890989 C106.052215,246.562605 107.408821,247.917718 109.082278,247.917718 C110.755736,247.917718 112.112342,246.562605 112.112342,244.890989 L112.112342,221.510984 C112.112342,219.839367 110.755736,218.484254 109.082278,218.484254 C107.408821,218.484254 106.052215,219.839367 106.052215,221.510984 Z M34.5427215,276.275109 L34.5427215,299.655113 C34.5427215,301.32673 35.8993271,302.681843 37.5727848,302.681843 C39.2462426,302.681843 40.6028481,301.32673 40.6028481,299.655113 L40.6028481,276.275109 C40.6028481,274.603492 39.2462426,273.248379 37.5727848,273.248379 C35.8993271,273.248379 34.5427215,274.603492 34.5427215,276.275109 Z M69.6914557,276.275109 L69.6914557,299.655113 C69.6914557,301.32673 71.0480612,302.681843 72.721519,302.681843 C74.3949767,302.681843 75.7515823,301.32673 75.7515823,299.655113 L75.7515823,276.275109 C75.7515823,274.603492 74.3949767,273.248379 72.721519,273.248379 C71.0480612,273.248379 69.6914557,274.603492 69.6914557,276.275109 Z M106.052215,276.275109 L106.052215,299.655113 C106.052215,301.32673 107.408821,302.681843 109.082278,302.681843 C110.755736,302.681843 112.112342,301.32673 112.112342,299.655113 L112.112342,276.275109 C112.112342,274.603492 110.755736,273.248379 109.082278,273.248379 C107.408821,273.248379 106.052215,274.603492 106.052215,276.275109 Z M152.109177,121.825633 L152.109177,145.213958 C152.109177,146.885574 153.465783,148.240687 155.139241,148.240687 C156.812698,148.240687 158.169304,146.885574 158.169304,145.213958 L158.169304,121.825633 C158.169304,120.154016 156.812698,118.798903 155.139241,118.798903 C153.465783,118.798903 152.109177,120.154016 152.109177,121.825633 Z M188.469937,121.825633 L188.469937,145.213958 C188.469937,146.885574 189.826542,148.240687 191.5,148.240687 C193.173458,148.240687 194.530063,146.885574 194.530063,145.213958 L194.530063,121.825633 C194.530063,120.154016 193.173458,118.798903 191.5,118.798903 C189.826542,118.798903 188.469937,120.154016 188.469937,121.825633 Z M223.618671,121.825633 L223.618671,145.213958 C223.618671,146.885574 224.975276,148.240687 226.648734,148.240687 C228.322192,148.240687 229.678797,146.885574 229.678797,145.213958 L229.678797,121.825633 C229.678797,120.154016 228.322192,118.798903 226.648734,118.798903 C224.975276,118.798903 223.618671,120.154016 223.618671,121.825633 Z M152.109177,176.598078 L152.109177,199.961442 C152.109177,201.633059 153.465783,202.988172 155.139241,202.988172 C156.812698,202.988172 158.169304,201.633059 158.169304,199.961442 L158.169304,176.598078 C158.169304,174.926462 156.812698,173.571349 155.139241,173.571349 C153.465783,173.571349 152.109177,174.926462 152.109177,176.598078 Z M188.469937,176.598078 L188.469937,199.961442 C188.469937,201.633059 189.826542,202.988172 191.5,202.988172 C193.173458,202.988172 194.530063,201.633059 194.530063,199.961442 L194.530063,176.598078 C194.530063,174.926462 193.173458,173.571349 191.5,173.571349 C189.826542,173.571349 188.469937,174.926462 188.469937,176.598078 Z M223.618671,176.598078 L223.618671,199.961442 C223.618671,201.633059 224.975276,202.988172 226.648734,202.988172 C228.322192,202.988172 229.678797,201.633059 229.678797,199.961442 L229.678797,176.598078 C229.678797,174.926462 228.322192,173.571349 226.648734,173.571349 C224.975276,173.571349 223.618671,174.926462 223.618671,176.598078 Z M269.675633,221.510984 L269.675633,244.890989 C269.675633,246.562605 271.032238,247.917718 272.705696,247.917718 C274.379154,247.917718 275.735759,246.562605 275.735759,244.890989 L275.735759,221.510984 C275.735759,219.839367 274.379154,218.484254 272.705696,218.484254 C271.032238,218.484254 269.675633,219.839367 269.675633,221.510984 Z M306.036392,221.510984 L306.036392,244.890989 C306.036392,246.562605 307.392998,247.917718 309.066456,247.917718 C310.739913,247.917718 312.096519,246.562605 312.096519,244.890989 L312.096519,221.510984 C312.096519,219.839367 310.739913,218.484254 309.066456,218.484254 C307.392998,218.484254 306.036392,219.839367 306.036392,221.510984 Z M341.185127,221.510984 L341.185127,244.890989 C341.185127,246.562605 342.541732,247.917718 344.21519,247.917718 C345.888648,247.917718 347.245253,246.562605 347.245253,244.890989 L347.245253,221.510984 C347.245253,219.839367 345.888648,218.484254 344.21519,218.484254 C342.541732,218.484254 341.185127,219.839367 341.185127,221.510984 Z M269.675633,276.275109 L269.675633,299.655113 C269.675633,301.32673 271.032238,302.681843 272.705696,302.681843 C274.379154,302.681843 275.735759,301.32673 275.735759,299.655113 L275.735759,276.275109 C275.735759,274.603492 274.379154,273.248379 272.705696,273.248379 C271.032238,273.248379 269.675633,274.603492 269.675633,276.275109 Z M306.036392,276.275109 L306.036392,299.655113 C306.036392,301.32673 307.392998,302.681843 309.066456,302.681843 C310.739913,302.681843 312.096519,301.32673 312.096519,299.655113 L312.096519,276.275109 C312.096519,274.603492 310.739913,273.248379 309.066456,273.248379 C307.392998,273.248379 306.036392,274.603492 306.036392,276.275109 Z M341.185127,276.275109 L341.185127,299.655113 C341.185127,301.32673 342.541732,302.681843 344.21519,302.681843 C345.888648,302.681843 347.245253,301.32673 347.245253,299.655113 L347.245253,276.275109 C347.245253,274.603492 345.888648,273.248379 344.21519,273.248379 C342.541732,273.248379 341.185127,274.603492 341.185127,276.275109 Z" id="Shape" stroke-width="5" stroke-linecap="round" sketch:type="MSShapeGroup"></path>
            </g>
        </g>
    </g>
</svg>