<?xml version="1.0" encoding="UTF-8" standalone="no"?>
<svg width="386px" height="369px" viewBox="0 0 386 369" version="1.1" xmlns="http://www.w3.org/2000/svg" xmlns:xlink="http://www.w3.org/1999/xlink" xmlns:sketch="http://www.bohemiancoding.com/sketch/ns">
    <!-- Generator: Sketch 3.4.2 (15857) - http://www.bohemiancoding.com/sketch -->
    <title>Oval</title>
    <desc>Created with Sketch.</desc>
    <defs></defs>
    <g id="Page-1" stroke="none" stroke-width="1" fill="none" fill-rule="evenodd" sketch:type="MSPage">
        <g id="login" sketch:type="MSArtboardGroup" transform="translate(-765.000000, -241.000000)" stroke="#607D8B" stroke-width="7">
            <path d="M949.5,542.909091 C968.026643,542.909091 983.045455,527.890279 983.045455,509.363636 C983.045455,490.836993 968.026643,475.818182 949.5,475.818182 C930.973357,475.818182 915.954545,490.836993 915.954545,509.363636 C915.954545,527.890279 930.973357,542.909091 949.5,542.909091 Z M983.045455,559.681818 L932.727273,559.681818 C914.277273,559.681818 899.181818,574.777273 899.181818,593.227273 L899.181818,610 L1016.59091,610 L1016.59091,593.227273 C1016.59091,574.777273 1001.49545,559.681818 983.045455,559.681818 Z M1083.68182,542.909091 C1102.20846,542.909091 1117.22727,527.890279 1117.22727,509.363636 C1117.22727,490.836993 1102.20846,475.818182 1083.68182,475.818182 C1065.15518,475.818182 1050.13636,490.836993 1050.13636,509.363636 C1050.13636,527.890279 1065.15518,542.909091 1083.68182,542.909091 Z M1150.77273,593.227273 C1150.77273,574.777273 1135.67727,559.681818 1117.22727,559.681818 L1066.90909,559.681818 C1048.45909,559.681818 1033.36364,574.777273 1033.36364,593.227273 L1033.36364,610 L1150.77273,610 L1150.77273,593.227273 Z M815.318182,542.909091 C833.844825,542.909091 848.863636,527.890279 848.863636,509.363636 C848.863636,490.836993 833.844825,475.818182 815.318182,475.818182 C796.791539,475.818182 781.772727,490.836993 781.772727,509.363636 C781.772727,527.890279 796.791539,542.909091 815.318182,542.909091 Z M848.863636,559.681818 L798.545455,559.681818 C780.095455,559.681818 765,574.777273 765,593.227273 L765,610 L882.409091,610 L882.409091,593.227273 C882.409091,574.777273 867.313636,559.681818 848.863636,559.681818 Z M815.318182,308.090909 C833.844825,308.090909 848.863636,293.072098 848.863636,274.545455 C848.863636,256.018812 833.844825,241 815.318182,241 C796.791539,241 781.772727,256.018812 781.772727,274.545455 C781.772727,293.072098 796.791539,308.090909 815.318182,308.090909 Z M798.545455,324.863636 C780.095455,324.863636 765,339.959091 765,358.409091 L765,459.045455 L865.636364,459.045455 L865.636364,358.409091 L915.954545,358.409091 L915.954545,324.863636 L798.545455,324.863636 Z M1117.22727,241 L932.727273,241 C922.663636,241 915.954545,247.709091 915.954545,257.772727 L915.954545,324.863636 L949.5,324.863636 C951.177273,324.863636 954.531818,324.863636 956.209091,326.540909 L1011.55909,284.609091 C1014.91364,281.254545 1019.94545,282.931818 1023.3,286.286364 C1026.65455,289.640909 1024.97727,294.672727 1021.62273,298.027273 L966.272727,339.959091 L966.272727,341.636364 C966.272727,351.7 959.563636,358.409091 949.5,358.409091 L915.954545,358.409091 L915.954545,391.954545 C915.954545,402.018182 922.663636,408.727273 932.727273,408.727273 L949.5,408.727273 C949.5,398.663636 956.209091,391.954545 966.272727,391.954545 L999.818182,391.954545 C1009.88182,391.954545 1016.59091,398.663636 1016.59091,408.727273 L1117.22727,408.727273 C1127.29091,408.727273 1134,402.018182 1134,391.954545 L1134,257.772727 C1134,247.709091 1127.29091,241 1117.22727,241 Z" id="Oval" sketch:type="MSShapeGroup"></path>
        </g>
    </g>
</svg>